<svg id="Capa_1" enable-background="new 0 0 512 512" height="512" viewBox="0 0 512 512" width="512" xmlns="http://www.w3.org/2000/svg"><g><g><path d="m505.813 100.943h-249.813v83.252h220.932c3.403 0 6.455-2.091 7.685-5.264l26.96-69.574c1.569-4.05-1.42-8.414-5.764-8.414z" fill="#90d8f9"/></g><g><path d="m256 184.195h96.567c17.683-21.551 28.311-49.102 28.311-79.089 0-1.394-.031-2.78-.077-4.163h-124.801z" fill="#75cef9"/></g><g><path d="m6.187 27.057h249.813v83.252h-220.932c-3.403 0-6.455-2.091-7.685-5.264l-26.96-69.574c-1.569-4.05 1.42-8.414 5.764-8.414z" fill="#df75a5"/></g><g><path d="m256 27.057h-97.406c-17.178 21.395-27.473 48.54-27.473 78.049 0 1.744.045 3.477.117 5.203h124.762z" fill="#dd5790"/></g><g><circle cx="256" cy="105.106" fill="#ffe07d" r="99.902"/></g><g><path d="m316.062 25.272c12.597 16.718 20.068 37.517 20.068 60.062 0 55.175-44.728 99.902-99.902 99.902-22.545 0-43.344-7.471-60.062-20.068 18.232 24.196 47.205 39.841 79.834 39.841 55.175 0 99.902-44.728 99.902-99.902 0-32.631-15.645-61.604-39.84-79.835z" fill="#ffd064"/></g><g><g><path d="m162.425 440.195h-33.385v-53.073h41.626v44.832c.001 4.551-3.689 8.241-8.241 8.241z" fill="#ffcbbe"/></g><g><path d="m41.626 440.195h-33.385c-4.552 0-8.241-3.69-8.241-8.241v-44.832h41.626z" fill="#ffddce"/></g><g><path d="m129.041 304.911h-87.415c-22.989 0-41.626 18.636-41.626 41.626v40.585h41.626v53.073h87.415v-53.073h41.626v-40.585c0-22.99-18.637-41.626-41.626-41.626z" fill="#df75a5"/></g><g><path d="m41.626 413.138v27.057h87.415v-53.073h41.626v-40.585c0-22.989-18.637-41.626-41.626-41.626 0 0-2.082 78.048-87.415 108.227z" fill="#dd5790"/></g><g><g><circle cx="85.333" cy="261.203" fill="#ffddce" r="43.707"/></g><g><path d="m105.696 222.53c3.209 6.082 5.034 13.008 5.034 20.363 0 24.139-19.568 43.707-43.707 43.707-7.355 0-14.281-1.825-20.363-5.034 7.323 13.879 21.889 23.344 38.673 23.344 24.139 0 43.707-19.568 43.707-43.707.001-16.783-9.464-31.349-23.344-38.673z" fill="#ffcbbe"/></g></g></g><g><g><path d="m503.759 440.195h-33.385v-53.073h41.626v44.832c0 4.551-3.69 8.241-8.241 8.241z" fill="#ffcbbe"/></g><g><path d="m382.959 440.195h-33.385c-4.552 0-8.241-3.69-8.241-8.241v-44.832h41.626z" fill="#ffddce"/></g><g><path d="m470.374 304.911h-87.415c-22.989 0-41.626 18.637-41.626 41.626v40.585h41.626v53.073h87.415v-53.073h41.626v-40.585c0-22.99-18.637-41.626-41.626-41.626z" fill="#90d8f9"/></g><g><path d="m382.959 413.138v27.057h87.415v-53.073h41.626v-40.585c0-22.989-18.637-41.626-41.626-41.626 0 0-2.081 78.048-87.415 108.227z" fill="#75cef9"/></g><g><g><circle cx="426.667" cy="261.203" fill="#ffddce" r="43.707"/></g><g><path d="m447.03 222.53c3.209 6.082 5.034 13.008 5.034 20.363 0 24.139-19.568 43.707-43.707 43.707-7.355 0-14.281-1.825-20.363-5.034 7.323 13.879 21.889 23.344 38.673 23.344 24.139 0 43.707-19.568 43.707-43.707 0-16.783-9.465-31.349-23.344-38.673z" fill="#ffcbbe"/></g></g></g><g><path d="m162.425 506.797h-154.184c-4.552 0-8.241-3.69-8.241-8.241v-16.818c0-4.552 3.69-8.241 8.241-8.241h154.184c4.552 0 8.241 3.69 8.241 8.241v16.818c.001 4.551-3.689 8.241-8.241 8.241z" fill="#4a80aa"/></g><g><path d="m503.759 506.797h-154.184c-4.552 0-8.241-3.69-8.241-8.241v-16.818c0-4.552 3.69-8.241 8.241-8.241h154.184c4.552 0 8.241 3.69 8.241 8.241v16.818c0 4.551-3.69 8.241-8.241 8.241z" fill="#4a80aa"/></g><g><g><path d="m462.049 150.069h-29.139c-4.143 0-7.5-3.357-7.5-7.5s3.357-7.5 7.5-7.5h29.139c4.143 0 7.5 3.357 7.5 7.5s-3.358 7.5-7.5 7.5z" fill="#4a80aa"/></g><g><path d="m399.609 150.069h-16.65c-4.143 0-7.5-3.357-7.5-7.5s3.357-7.5 7.5-7.5h16.65c4.143 0 7.5 3.357 7.5 7.5s-3.357 7.5-7.5 7.5z" fill="#4a80aa"/></g></g><g><path d="m129.041 387.122v-20.813c0-4.268 3.459-7.726 7.726-7.726s7.726 3.459 7.726 7.726v20.813z" fill="#da387d"/></g><g><path d="m26.173 387.122v-20.813c0-4.268 3.459-7.726 7.726-7.726s7.726 3.459 7.726 7.726v20.813z" fill="#dd5790"/></g><g><path d="m470.374 387.122v-20.813c0-4.268 3.459-7.726 7.726-7.726s7.726 3.459 7.726 7.726v20.813z" fill="#5ea5ec"/></g><g><path d="m367.507 387.122v-20.813c0-4.268 3.459-7.726 7.726-7.726 4.268 0 7.726 3.459 7.726 7.726v20.813z" fill="#75cef9"/></g><g><g><g><g><path d="m295.832 147.173c-11.074 0-21.891-4.639-28.935-12.409-2.865-3.162-2.625-8.048.536-10.914 3.162-2.864 8.048-2.625 10.914.536 4.162 4.594 10.698 7.335 17.484 7.335 6.75 0 11.515-4.101 12.223-8.066.964-5.395-6.053-8.605-9.115-9.734-10.311-3.803-19.464-7.877-19.849-8.048-.372-.166-.73-.361-1.071-.584-6.826-4.451-10.342-12.256-9.177-20.369 1.243-8.663 7.588-15.723 16.556-18.426 17.89-5.383 32.626 6.764 33.243 7.285 3.267 2.745 3.689 7.619.944 10.885-2.735 3.256-7.583 3.685-10.849.975-.231-.187-9.178-7.279-18.881-4.348-4.605 1.387-5.532 4.535-5.717 5.824-.139.964-.206 3.289 1.91 4.937 2.257.989 9.959 4.317 18.239 7.372 16.457 6.07 20.595 17.9 18.979 26.948-2.15 12.053-13.689 20.801-27.434 20.801z" fill="#df75a5"/></g></g></g><g><g><g><path d="m220.315 147.173c-3.901 0-7.39-2.461-8.697-6.141l-22.789-65.654c-1.399-4.031.734-8.433 4.766-9.832 4.029-1.405 8.434.733 9.832 4.766l16.76 48.282 15.966-48.061c1.345-4.05 5.721-6.242 9.768-4.896 4.049 1.345 6.242 5.718 4.896 9.768l-21.745 65.46c-1.28 3.768-4.767 6.284-8.692 6.31-.023-.002-.044-.002-.065-.002z" fill="#df75a5"/></g></g></g></g><g><g><path d="m79.09 76.183h-29.139c-4.143 0-7.5-3.357-7.5-7.5s3.357-7.5 7.5-7.5h29.139c4.143 0 7.5 3.357 7.5 7.5s-3.358 7.5-7.5 7.5z" fill="#4a80aa"/></g><g><path d="m129.041 76.183h-16.65c-4.143 0-7.5-3.357-7.5-7.5s3.357-7.5 7.5-7.5h16.65c4.143 0 7.5 3.357 7.5 7.5s-3.357 7.5-7.5 7.5z" fill="#4a80aa"/></g></g></g></svg>